<svg width="100" height="16" viewBox="0 0 100 16" fill="none" xmlns="http://www.w3.org/2000/svg">
<rect width="100" height="16" fill="white"/>
<rect x="58.5" y="5" width="1" height="1" fill="black"/>
<rect x="59.5" y="5" width="1" height="1" fill="black"/>
<rect x="60.5" y="6" width="1" height="1" fill="black"/>
<rect x="61.5" y="6" width="1" height="1" fill="black"/>
<rect x="60.5" y="5" width="1" height="1" fill="black"/>
<rect x="61.5" y="7" width="1" height="1" fill="black"/>
<rect x="61.5" y="8" width="1" height="1" fill="black"/>
<rect x="62.5" y="7" width="1" height="1" fill="black"/>
<rect x="60.5" y="8" width="1" height="1" fill="black"/>
<rect x="60.5" y="9" width="1" height="1" fill="black"/>
<rect x="59.5" y="9" width="1" height="1" fill="black"/>
<rect x="58.5" y="9" width="1" height="1" fill="black"/>
<rect x="57.5" y="9" width="1" height="1" fill="black"/>
<rect x="56.5" y="9" width="1" height="1" fill="black"/>
<rect x="55.5" y="9" width="1" height="1" fill="black"/>
<rect x="54.5" y="9" width="1" height="1" fill="black"/>
<rect x="55.5" y="8" width="1" height="1" fill="black"/>
<rect x="55.5" y="7" width="1" height="1" fill="black"/>
<rect x="54.5" y="6" width="1" height="1" fill="black"/>
<rect x="53.5" y="9" width="1" height="1" fill="black"/>
<rect x="52.5" y="9" width="1" height="1" fill="black"/>
<rect x="49.5" y="7" width="1" height="1" fill="black"/>
<rect x="49.5" y="8" width="1" height="1" fill="black"/>
<rect x="48.5" y="9" width="1" height="1" fill="black"/>
<rect x="47.5" y="9" width="1" height="1" fill="black"/>
<rect x="46.5" y="9" width="1" height="1" fill="black"/>
<rect x="45.5" y="8" width="1" height="1" fill="black"/>
<rect x="45.5" y="9" width="1" height="1" fill="black"/>
<rect x="44.5" y="8" width="1" height="1" fill="black"/>
<rect x="45.5" y="7" width="1" height="1" fill="black"/>
<rect x="43.5" y="8" width="1" height="1" fill="black"/>
<rect x="43.5" y="9" width="1" height="1" fill="black"/>
<rect x="42.5" y="9" width="1" height="1" fill="black"/>
<rect x="41.5" y="9" width="1" height="1" fill="black"/>
<rect x="40.5" y="9" width="1" height="1" fill="black"/>
<rect x="39.5" y="9" width="1" height="1" fill="black"/>
<rect x="37.5" y="9" width="1" height="1" fill="black"/>
<rect x="38.5" y="9" width="1" height="1" fill="black"/>
<rect x="36.5" y="7" width="1" height="1" fill="black"/>
<rect x="39.5" y="6" width="1" height="1" fill="black"/>
<rect x="40.5" y="4" width="1" height="1" fill="black"/>
<rect x="41.5" y="6" width="1" height="1" fill="black"/>
<rect x="48.5" y="11" width="1" height="1" fill="black"/>
<rect x="50.5" y="11" width="1" height="1" fill="black"/>
<rect x="36.5" y="8" width="1" height="1" fill="black"/>
</svg>
